Coordinates
version=1
nRows=26
nColumns=22
inDegrees=yes

Units are S.I. units (second, meters, Newtons, ...)
If the header above contains a line with 'inDegrees', this indicates whether rotational values are in degrees (yes) or radians (no).

endheader
time	pelvis_tilt	pelvis_list	pelvis_rotation	pelvis_tx	pelvis_ty	pelvis_tz	hip_flexion_r	hip_adduction_r	hip_rotation_r	knee_angle_r	ankle_angle_r	subtalar_angle_r	hip_flexion_l	hip_adduction_l	hip_rotation_l	knee_angle_l	ankle_angle_l	subtalar_angle_l	lumbar_extension	lumbar_bending	lumbar_rotation
      2.63000000	     -9.46457919	     -5.52692935	     -5.44541034	      0.47047771	      0.93265811	     -0.26669824	      0.27580707	      4.91831119	      8.15550681	    -35.21496620	      0.61722858	      9.19250604	     31.21336179	     -5.56248948	     -2.25603870	    -31.43232902	      7.06080752	     -1.47609452	     -4.59130055	     -0.24413353	      3.92406273
      2.64000000	     -9.52785292	     -5.40953131	     -5.79967720	      0.46181230	      0.93200354	     -0.26487383	     -0.21078295	      4.90842704	      8.67899303	    -33.68949162	      0.90554040	      9.19436266	     31.76582054	     -5.72617873	     -2.41099535	    -31.35268664	      6.49907390	     -1.37662858	     -4.66476848	     -0.30922157	      4.29355715
      2.65000000	     -9.54691626	     -5.24463899	     -6.17731035	      0.45298874	      0.93132908	     -0.26298472	     -0.61756630	      4.84437592	      9.20078598	    -32.29854035	      1.30907119	      9.04217863	     32.26422255	     -5.87015179	     -2.63990107	    -31.25118363	      5.95368126	     -1.29547515	     -4.78987962	     -0.42780558	      4.64899058
      2.66000000	     -9.54215987	     -5.05569630	     -6.54678475	      0.44399512	      0.93060079	     -0.26107918	     -0.91738400	      4.74601758	      9.61865112	    -31.07300088	      1.86378251	      8.57742893	     32.73134282	     -5.99380132	     -2.87295542	    -31.11478651	      5.35366025	     -1.22369793	     -4.94246605	     -0.56857043	      4.98232410
      2.67000000	     -9.54624519	     -4.84827627	     -6.92732652	      0.43482787	      0.92976703	     -0.25909189	     -1.07584977	      4.63945183	      9.99364174	    -30.04089737	      2.57163377	      8.10536561	     33.21045099	     -6.12155857	     -3.12919324	    -30.96481094	      4.74466525	     -1.11582309	     -5.07947810	     -0.72874807	      5.30444574
      2.68000000	     -9.53915460	     -4.62232005	     -7.30833053	      0.42553084	      0.92886448	     -0.25706245	     -1.12280992	      4.51765374	     10.29435201	    -29.20526795	      3.46028675	      7.76253201	     33.67333846	     -6.24776555	     -3.42265664	    -30.78935481	      4.11941564	     -0.98091468	     -5.21919750	     -0.90458965	      5.60543407
      2.69000000	     -9.48673311	     -4.41439816	     -7.66029421	      0.41613571	      0.92796751	     -0.25502222	     -1.13591464	      4.42403829	     10.51650105	    -28.51187375	      4.42608249	      7.00444514	     34.08635361	     -6.37587277	     -3.66460126	    -30.59248825	      3.44665846	     -0.89641596	     -5.40497583	     -1.06078288	      5.87398111
      2.70000000	     -9.42081674	     -4.18872298	     -8.00844000	      0.40666517	      0.92704551	     -0.25294982	     -1.06776695	      4.31531519	     10.66707343	    -27.98288759	      5.57796142	      6.59605785	     34.46064792	     -6.48781478	     -3.90587965	    -30.34011166	      2.78174845	     -0.75090998	     -5.58777181	     -1.23676751	      6.13812150
      2.71000000	     -9.30646291	     -4.02246649	     -8.32123433	      0.39712706	      0.92618539	     -0.25086473	     -1.01487039	      4.27978889	     10.75265652	    -27.52597468	      6.73314510	      5.65435060	     34.76954235	     -6.63893647	     -4.09570686	    -30.04508954	      2.05730433	     -0.67676025	     -5.82395154	     -1.34563877	      6.36010312
      2.72000000	     -9.16206105	     -3.87335469	     -8.60900216	      0.38752474	      0.92537584	     -0.24879989	     -0.94217257	      4.25982929	     10.76148032	    -27.15383095	      7.96752424	      4.90383047	     35.01942192	     -6.78555925	     -4.23895462	    -29.68445166	      1.31347464	     -0.55758078	     -6.08593881	     -1.43182804	      6.57743312
      2.73000000	     -8.98324677	     -3.76724504	     -8.85961325	      0.37785583	      0.92465814	     -0.24675816	     -0.88339426	      4.28632358	     10.71278962	    -26.81316432	      9.19515713	      4.14172605	     35.20519564	     -6.94637847	     -4.31598477	    -29.25098963	      0.51953689	     -0.42969701	     -6.38650379	     -1.46920862	      6.77896452
      2.74000000	     -8.78295568	     -3.70783648	     -9.06683987	      0.36812700	      0.92404147	     -0.24474888	     -0.83937382	      4.36543270	     10.62000030	    -26.47293438	     10.38313337	      3.38874290	     35.33861614	     -7.11929062	     -4.30097014	    -28.73844109	     -0.33446431	     -0.27220421	     -6.71309487	     -1.45214157	      6.96200117
      2.75000000	     -8.57026542	     -3.69385154	     -9.22559183	      0.35833157	      0.92353737	     -0.24278333	     -0.80397132	      4.49633399	     10.48841631	    -26.12009641	     11.50202065	      2.66843490	     35.43198486	     -7.30604979	     -4.20013347	    -28.14612593	     -1.27122906	     -0.06592651	     -7.05884713	     -1.38110128	      7.12535888
      2.76000000	     -8.36040543	     -3.71825016	     -9.33048027	      0.34845698	      0.92314574	     -0.24088788	     -0.75819615	      4.67406713	     10.32494203	    -25.75189499	     12.52994061	      1.98309662	     35.50450022	     -7.49868683	     -4.00286240	    -27.47228780	     -2.30928986	      0.21064991	     -7.41070255	     -1.26066589	      7.26437313
      2.77000000	     -8.17894275	     -3.75140475	     -9.37024623	      0.33851260	      0.92284146	     -0.23911341	     -0.66580295	      4.86290516	     10.10187543	    -25.37117963	     13.47996398	      1.58711754	     35.58731055	     -7.66483879	     -3.70383767	    -26.71713082	     -3.48387156	      0.57321461	     -7.73450486	     -1.11708596	      7.36760785
      2.78000000	     -7.98652519	     -3.82110963	     -9.34184944	      0.32848036	      0.92267267	     -0.23742751	     -0.57079384	      5.10522043	      9.87017500	    -24.98796852	     14.31649456	      0.81021881	     35.65007663	     -7.83677623	     -3.31534696	    -25.91112102	     -4.70121614	      1.07594372	     -8.09144759	     -0.92997573	      7.42463696
      2.79000000	     -7.84108619	     -3.84701796	     -9.24303634	      0.31839754	      0.92257699	     -0.23592769	     -0.37406799	      5.29682133	      9.54862447	    -24.63679753	     15.06659313	      0.48689895	     35.73893141	     -7.92682609	     -2.81480725	    -25.02820207	     -6.05713579	      1.63333146	     -8.39335780	     -0.77521308	      7.44459274
      2.80000000	     -7.70521436	     -3.86914520	     -9.06736879	      0.30828562	      0.92256794	     -0.23458112	     -0.14049842	      5.49425439	      9.21206066	    -24.30129459	     15.75688569	     -0.07011320	     35.83476053	     -7.97470527	     -2.18581477	    -24.13684549	     -7.33701199	      2.53851841	     -8.69357233	     -0.61454606	      7.39188785
      2.81000000	     -7.58048026	     -3.82932658	     -8.82811032	      0.29820086	      0.92265355	     -0.23343470	      0.16885383	      5.61597542	      8.80288391	    -24.03014665	     16.36555870	     -0.44134782	     35.91149730	     -7.91977392	     -1.42407707	    -23.22440532	     -8.56809127	      3.57308612	     -8.97461489	     -0.51196667	      7.29664030
      2.82000000	     -7.45252933	     -3.74151697	     -8.51837500	      0.28823194	      0.92281159	     -0.23249352	      0.50922419	      5.67499986	      8.34083307	    -23.79390531	     16.95154774	     -0.74550788	     35.96042269	     -7.76576713	     -0.48181674	    -22.36027946	     -9.56996971	      4.80820351	     -9.24452130	     -0.45299655	      7.14139780
      2.83000000	     -7.30413930	     -3.60873210	     -8.16499487	      0.27841529	      0.92305169	     -0.23172706	      0.87640525	      5.67366018	      7.84755387	    -23.63048218	     17.48484659	     -1.02358107	     35.95452154	     -7.52426434	      0.64696324	    -21.60035760	    -10.20432445	      6.22199859	     -9.52208905	     -0.43763316	      6.93979073
      2.84000000	     -7.14048234	     -3.43539558	     -7.79108574	      0.26885928	      0.92336133	     -0.23106408	      1.22602289	      5.61719712	      7.35804845	    -23.46715405	     17.96167149	     -1.30771994	     35.90651192	     -7.21889652	      1.91165025	    -21.03211016	    -10.39443721	      7.81301630	     -9.78306635	     -0.47135433	      6.74516786
      2.85000000	     -6.93661137	     -3.24504938	     -7.39100031	      0.25957741	      0.92374536	     -0.23053579	      1.54425214	      5.52763606	      6.85107066	    -23.34224802	     18.37901212	     -1.58637631	     35.80309469	     -6.85721243	      3.30195949	    -20.73427553	    -10.05120437	      9.35850150	    -10.06290737	     -0.52268243	      6.52044205
      2.86000000	     -6.70284775	     -3.04245071	     -7.00260223	      0.25059287	      0.92418227	     -0.23001883	      1.81722326	      5.42173111	      6.38321486	    -23.22224321	     18.79691111	     -1.89671970	     35.67704900	     -6.47753225	      4.67214931	    -20.79268313	     -9.18398579	     10.79834960	    -10.34192076	     -0.60354213	      6.30795102
      2.87000000	     -6.43959690	     -2.85132092	     -6.61594454	      0.24192311	      0.92468710	     -0.22953981	      2.03067150	      5.31882580	      5.90860994	    -23.08419889	     19.13603664	     -2.21029821	     35.53517985	     -6.08986619	      5.96163669	    -21.23467265	     -7.85471487	     11.91815463	    -10.62127263	     -0.68031037	      6.11043347
      2.88000000	     -6.15451960	     -2.68148775	     -6.27026270	      0.23350442	      0.92522863	     -0.22901923	      2.20552654	      5.24004476	      5.48531550	    -22.95273355	     19.44723898	     -2.57074261	     35.42256920	     -5.74341546	      6.95989268	    -22.12219652	     -6.11444197	     12.72306959	    -10.90209385	     -0.74488583	      5.92070076
